<svg width="60" height="38" viewBox="0 0 60 38" fill="none" xmlns="http://www.w3.org/2000/svg">
<g id="Charity-rafiki (1) 1">
<g id="freepik--Box--inject-2">
<path id="Vector" d="M50.5741 8.14844H24.1262V29.8806H50.5741V8.14844Z" fill="#FD624B"/>
<path id="Vector_2" opacity="0.3" d="M50.5741 8.14844H24.1262V29.8806H50.5741V8.14844Z" fill="white"/>
<path id="Vector_3" d="M30.6474 8.14844H10.1494V29.8806H30.6474V8.14844Z" fill="#FD624B"/>
<path id="Vector_4" opacity="0.1" d="M30.6474 8.14844H10.1494V29.8806H30.6474V8.14844Z" fill="white"/>
<path id="Vector_5" opacity="0.3" d="M23.2984 8.14844H17.4985V14.9115H23.2984V8.14844Z" fill="white"/>
<path id="Vector_6" opacity="0.1" d="M44.9388 8.14844H39.1389V14.9115H44.9388V8.14844Z" fill="black"/>
<path id="Vector_7" d="M39.4536 20.9385H38.6887C38.6766 20.7174 38.6766 20.4958 38.6887 20.2747C38.6887 19.9284 38.955 19.2598 39.4391 19.5629C39.5892 19.6542 39.7635 19.4426 39.6134 19.3512C39.5049 19.2863 39.3818 19.2493 39.2553 19.2433C39.1288 19.2373 39.0028 19.2626 38.8886 19.317C38.7744 19.3713 38.6755 19.453 38.6009 19.5547C38.5263 19.6564 38.4783 19.7749 38.4612 19.8996C38.3966 20.2387 38.3803 20.5852 38.4128 20.9289H37.9722C37.7979 20.9289 37.7495 21.1935 37.9286 21.1983H38.4128C38.4128 21.6216 38.4128 22.0449 38.4128 22.4682C38.4128 22.6461 38.6887 22.6125 38.6887 22.4393C38.6887 22.0256 38.6887 21.6168 38.6887 21.2031H39.4052C39.5843 21.2127 39.6328 20.9434 39.4536 20.9385Z" fill="white"/>
<path id="Vector_8" d="M40.7219 20.3421C40.7029 20.3374 40.6829 20.3374 40.6638 20.3421C39.41 20.2507 39.6084 22.2902 40.8091 22.2661C41.0656 22.2294 41.2993 22.0994 41.4648 21.9012C41.6303 21.703 41.7158 21.4508 41.7047 21.1935C41.7086 21.0696 41.6848 20.9464 41.6349 20.8327C41.585 20.7191 41.5104 20.6179 41.4164 20.5364C41.3223 20.455 41.2112 20.3953 41.0912 20.3617C40.9711 20.3281 40.8449 20.3214 40.7219 20.3421ZM40.9108 21.9727C40.0054 22.2084 39.715 20.5297 40.6445 20.6307C40.673 20.6385 40.7031 20.6385 40.7316 20.6307C41.6031 20.5008 41.6031 21.7899 40.9108 21.9727Z" fill="white"/>
<path id="Vector_9" d="M43.7138 20.8472C43.341 19.6446 41.4626 20.6307 42 21.7274C42.1372 21.9425 42.3484 22.1006 42.5942 22.1723C42.8401 22.2439 43.1038 22.2243 43.3362 22.117C43.4526 22.0724 43.5577 22.0026 43.6437 21.9127C43.7296 21.8227 43.7944 21.715 43.8333 21.5971C43.8723 21.4793 43.8843 21.3543 43.8687 21.2313C43.853 21.1082 43.8101 20.9902 43.7429 20.8856L43.7138 20.8472ZM42.2178 21.535C41.9613 20.8039 43.1861 20.092 43.4572 20.9578C43.4602 20.973 43.4666 20.9873 43.4758 20.9997C43.485 21.0122 43.4968 21.0225 43.5105 21.0299C43.9849 21.8717 42.4793 22.295 42.2178 21.535Z" fill="white"/>
<path id="Vector_10" d="M45.815 22.1747C45.7327 21.0683 45.6552 19.962 45.5729 18.8605C45.5729 18.6825 45.2873 18.7162 45.2969 18.8893L45.3986 20.2843C45.2518 20.237 45.096 20.2238 44.9432 20.2455C44.7904 20.2673 44.6447 20.3235 44.5171 20.4099C44.3896 20.4962 44.2836 20.6104 44.2073 20.7437C44.131 20.877 44.0864 21.0259 44.0769 21.179C44.0382 21.9245 44.9096 22.1795 45.5293 22.0977V22.2035C45.5535 22.3767 45.8295 22.3478 45.815 22.1747ZM44.3626 21.2992C44.3546 21.179 44.3763 21.0586 44.4257 20.9486C44.4751 20.8386 44.5508 20.7422 44.6461 20.6678C44.7415 20.5934 44.8537 20.5432 44.9731 20.5217C45.0924 20.5001 45.2152 20.5078 45.3308 20.544C45.3578 20.5512 45.3862 20.5512 45.4131 20.544C45.447 20.9673 45.4761 21.3906 45.51 21.8187C45.0888 21.8764 44.4255 21.7898 44.3529 21.2992H44.3626Z" fill="white"/>
</g>
</g>
</svg>
