<svg width="178" height="128" viewBox="0 0 178 128" fill="none" xmlns="http://www.w3.org/2000/svg">
<g id="Take Away-rafiki 2">
<g id="freepik--Shape--inject-8">
<path id="freepik--shape--inject-8" d="M100 121.487C57.1672 121.487 22.4441 119.632 22.4441 117.344C22.4441 115.056 57.1672 113.201 100 113.201C142.833 113.201 177.556 115.056 177.556 117.344C177.556 119.632 142.833 121.487 100 121.487Z" fill="#F5F5F5"/>
</g>
<g id="freepik--Route--inject-8">
<path id="Vector" d="M144.108 117.344H145.708" stroke="#EB0029" stroke-linecap="round" stroke-linejoin="round"/>
<path id="Vector_2" d="M148.732 117.344H189.592" stroke="#EB0029" stroke-linecap="round" stroke-linejoin="round" stroke-dasharray="7.57 7.57"/>
</g>
<g id="freepik--Character--inject-8">
<path id="Vector_3" d="M48.8971 29.7348L95.0508 30.4351L94.4983 60.9223L48.3446 60.222L48.8971 29.7348Z" fill="#EB0029"/>
<path id="Vector_4" opacity="0.3" d="M67.1926 30.0085L95.0967 30.4319L94.5442 60.9192L66.6401 60.4958L67.1926 30.0085Z" fill="white"/>
<path id="Vector_5" opacity="0.3" d="M62.9874 32.0629L71.0234 32.21L70.9786 34.2596L62.9426 34.1125L62.9874 32.0629Z" fill="white"/>
<path id="Vector_6" opacity="0.3" d="M62.7488 55.7702L70.7837 55.8921L70.7466 57.9414L62.7116 57.8195L62.7488 55.7702Z" fill="white"/>
<path id="Vector_7" d="M57.3924 49.2495C54.7878 49.2495 52.6764 47.0636 52.6764 44.3671C52.6764 41.6706 54.7878 39.4846 57.3924 39.4846C59.997 39.4846 62.1084 41.6706 62.1084 44.3671C62.1084 47.0636 59.997 49.2495 57.3924 49.2495Z" stroke="white" stroke-miterlimit="10"/>
<path id="Vector_8" d="M57.1958 40.2275V41.0474" stroke="white" stroke-linecap="round" stroke-linejoin="round"/>
<path id="Vector_9" d="M56.9922 47.738V48.5579" stroke="white" stroke-linecap="round" stroke-linejoin="round"/>
<path id="Vector_10" d="M61.3682 44.2061H60.4682" stroke="white" stroke-linecap="round" stroke-linejoin="round"/>
<path id="Vector_11" d="M54.144 44.2097H53.2441" stroke="white" stroke-linecap="round" stroke-linejoin="round"/>
<path id="Vector_12" d="M57.2002 44.206L57.1965 41.6807" stroke="white" stroke-width="0.5" stroke-linecap="round" stroke-linejoin="round"/>
<path id="Vector_13" d="M57.0239 44.3706L55.0719 46.1567" stroke="white" stroke-width="0.5" stroke-linecap="round" stroke-linejoin="round"/>
<path id="Vector_14" d="M56.7638 44.2097C56.7638 44.2886 56.7893 44.3658 56.8373 44.4314C56.8852 44.497 56.9533 44.5481 57.0329 44.5783C57.1126 44.6085 57.2002 44.6164 57.2848 44.601C57.3694 44.5856 57.4471 44.5476 57.508 44.4918C57.569 44.436 57.6105 44.365 57.6274 44.2876C57.6442 44.2102 57.6355 44.13 57.6026 44.0571C57.5696 43.9842 57.5137 43.9219 57.442 43.878C57.3703 43.8342 57.286 43.8108 57.1998 43.8108C57.1424 43.8103 57.0854 43.8203 57.0323 43.8402C56.9792 43.8601 56.9309 43.8894 56.8903 43.9266C56.8497 43.9637 56.8176 44.0079 56.7959 44.0565C56.7742 44.1051 56.7632 44.1572 56.7638 44.2097Z" fill="white"/>
<path id="Vector_15" opacity="0.3" d="M57.3922 50.5415C53.9438 50.5415 51.1482 47.7771 51.1482 44.3671C51.1482 40.957 53.9438 38.1926 57.3922 38.1926C60.8407 38.1926 63.6362 40.957 63.6362 44.3671C63.6362 47.7771 60.8407 50.5415 57.3922 50.5415Z" fill="white"/>
<path id="Vector_16" d="M109.248 97.9129C108.552 98.3997 94.58 97.0236 98.192 74.3425C98.192 74.3425 91.564 75.8834 90.852 75.7809C90.852 75.7809 81.128 89.4217 88.208 96.1781C95.288 102.934 105.84 103.348 105.84 103.348L109.248 97.9129Z" fill="#EB0029"/>
<path id="Vector_17" opacity="0.3" d="M109.248 97.9129C108.552 98.3997 94.58 97.0236 98.192 74.3425C98.192 74.3425 91.564 75.8834 90.852 75.7809C90.852 75.7809 81.128 89.4217 88.208 96.1781C95.288 102.934 105.84 103.348 105.84 103.348L109.248 97.9129Z" fill="black"/>
<path id="Vector_18" d="M93.7641 77.8522C93.7281 77.8522 97.6681 77.9217 98.9881 76.4211C100.308 74.9205 101.2 72.2377 98.8001 70.4077C96.4001 68.5777 82.3081 60.6721 75.6721 60.0499C69.036 59.4277 61.932 63.3439 61.932 63.3439L70.62 69.2219L89.3281 73.365L93.7641 77.8522Z" fill="#263238"/>
<path id="Vector_19" d="M106.504 94.3406L106.14 97.62L101.836 97.2869L102.484 93.916L106.504 94.3406Z" fill="#FFC3BD"/>
<path id="Vector_20" d="M107.34 97.3823L101.096 97.3018L100.652 100.186C100.652 100.186 106.5 100.259 108.904 99.9663C111.308 99.6735 110.932 98.5279 110.932 98.5279C110.932 98.5279 108.116 98.5901 107.34 97.3823Z" fill="#263238"/>
<path id="Vector_21" d="M52.8489 105.683C51.9166 97.2994 57.4483 89.9176 65.2043 89.1955C72.9603 88.4734 80.0036 94.6844 80.9359 103.068C81.8682 111.452 76.3365 118.834 68.5805 119.556C60.8245 120.278 53.7812 114.067 52.8489 105.683Z" fill="#263238"/>
<path id="Vector_22" d="M76.7043 57.7042C76.7043 57.7042 76.0563 71.3085 84.7043 71.6964C93.3523 72.0844 102.644 71.217 102.644 71.217L99.9203 95.6621L108.028 96.1196C108.028 96.1196 113.848 75.3821 114.764 70.1702C115.68 64.9584 114.884 61.2728 108.872 58.9596C102.86 56.6465 76.7043 57.7042 76.7043 57.7042Z" fill="#EB0029"/>
<path id="Vector_23" d="M125.1 100.866L114.328 72.238L99.928 57.6931C99.928 57.6931 112.496 57.737 118.536 60.9139C124.576 64.0908 124.8 67.9082 125.908 72.4502C127.016 76.9923 131.46 98.4911 131.46 98.4911L125.1 100.866Z" fill="#EB0029"/>
<path id="Vector_24" opacity="0.7" d="M76.704 57.704C76.704 57.704 90.088 57.1587 99.904 57.704C99.904 57.704 112.472 57.748 118.512 60.9248C124.552 64.1017 124.8 67.9081 125.908 72.4502C127.016 76.9922 131.46 98.4911 131.46 98.4911L125.1 100.866L114.328 72.2379C112.516 80.1728 108.028 96.1047 108.028 96.1047L99.92 95.6619L102.648 71.2314C102.648 71.2314 93.36 72.0988 84.708 71.7109C76.056 71.3229 76.704 57.704 76.704 57.704Z" fill="black"/>
<path id="Vector_25" d="M98.8001 35.6379L103.772 36.1906C103.772 36.1906 104.636 44.5537 105.44 46.1787C105.44 46.1787 120.732 48.1002 126.996 47.9355L130.176 49.9119L130.288 53.3487L127.172 53.4329L126.168 51.2552C126.168 51.2552 124.064 51.171 123.576 50.0876C123.576 50.0876 107.328 53.6781 101.344 49.5789C101.336 49.5825 97.7281 44.733 98.8001 35.6379Z" fill="#FFC3BD"/>
<path id="Vector_26" d="M84.552 13.2424C84.552 13.2424 82.996 15.0724 83.588 16.6572C83.7514 17.1092 84.0393 17.515 84.4239 17.8355C84.8085 18.1561 85.277 18.3805 85.784 18.4872C85.784 18.4872 86.076 21.0236 87.712 21.0968C89.348 21.17 88.8 15.508 88.8 15.508L84.552 13.2424Z" fill="#263238"/>
<path id="Vector_27" d="M97.1481 57.7663L98.2401 41.4171L105.016 37.2959C105.016 37.2959 102.8 30.1479 98.5601 28.9365C94.3201 27.725 85.0721 24.9471 79.4641 26.3269C73.8561 27.7067 74.5001 33.7604 75.4641 38.2512L76.5441 38.4854C76.5441 38.4854 76.7121 56.1815 76.7201 57.7041L97.1481 57.7663Z" fill="#263238"/>
<path id="Vector_28" d="M84.9558 27.3372C87.1758 29.3026 91.7038 30.4738 92.9558 29.4966C94.2078 28.5194 92.6278 27.6227 91.4518 26.5173C90.8158 25.9098 90.8357 24.7715 90.9837 23.8638C91.0617 23.4065 91.1767 22.9551 91.3278 22.5133C95.4838 22.3047 97.2078 20.5259 97.3798 17.3893C97.5518 14.2527 95.9998 10.611 95.9998 10.611L93.0638 8.31982C93.0638 8.31982 89.0638 8.86882 85.8638 10.8818C83.9598 12.0677 84.5238 14.4027 85.3118 16.1266C85.6456 16.8604 86.0471 17.5669 86.5118 18.2384C86.9598 22.5316 84.9558 27.3372 84.9558 27.3372Z" fill="#FFC3BD"/>
<path id="Vector_29" d="M95.0679 18.2529C95.0679 18.2529 93.4679 18.3225 92.7679 17.4148" stroke="#263238" stroke-linecap="round" stroke-linejoin="round"/>
<path id="Vector_30" d="M92.5199 14.5491C92.5199 14.8272 92.7039 15.0468 92.9199 15.0432C93.1359 15.0395 93.2919 14.8089 93.2839 14.5308C93.2759 14.2526 93.0999 14.033 92.8839 14.0367C92.6679 14.0403 92.5079 14.2709 92.5199 14.5491Z" fill="#263238"/>
<path id="Vector_31" d="M96.1678 14.637C96.1678 14.9151 96.3518 15.1347 96.5678 15.1311C96.7838 15.1274 96.9398 14.8968 96.9318 14.6187C96.9238 14.3405 96.7478 14.1209 96.5318 14.1246C96.3158 14.1282 96.1558 14.3625 96.1678 14.637Z" fill="#263238"/>
<path id="Vector_32" d="M94.8998 16.9096L95.0638 14.666L96.2358 16.7961C96.0529 16.9384 95.8265 17.0256 95.5874 17.0459C95.3484 17.0662 95.1083 17.0186 94.8998 16.9096Z" fill="#ED847E"/>
<path id="Vector_33" d="M92.7119 12.7922C92.4051 12.7151 92.0783 12.7401 91.7897 12.8627C91.5011 12.9854 91.2695 13.1977 91.1359 13.462" stroke="#263238" stroke-linecap="round" stroke-linejoin="round"/>
<path id="Vector_34" d="M97.2964 13.2057C97.2964 13.2057 96.5604 12.4737 95.6964 12.6604" stroke="#263238" stroke-linecap="round" stroke-linejoin="round"/>
<path id="Vector_35" d="M85.2844 16.1266C89.8604 16.2767 90.4284 11.5296 90.4284 11.5296C92.6924 12.6276 95.9844 10.6146 95.9844 10.6146L93.0484 8.31616C93.0484 8.31616 89.0484 8.87248 85.8484 10.8782C83.9324 12.0677 84.4964 14.4101 85.2844 16.1266Z" fill="#263238"/>
<path id="Vector_36" d="M97.4558 12.0054C97.4558 12.0054 99.8238 10.5633 98.7798 9.52387C97.7358 8.48443 91.3398 10.4608 86.5598 12.8838C86.5598 12.8838 97.5078 6.18229 100.484 8.30143C102.944 10.0546 97.4878 12.4885 97.6518 12.4848L97.4558 12.0054Z" fill="#EB0029"/>
<path id="Vector_37" d="M84.0999 11.5149C84.1066 12.2738 84.2638 13.0253 84.5639 13.7328L95.3159 8.97485C94.8704 8.50421 94.3367 8.11007 93.7399 7.81097C93.1036 7.47792 92.4117 7.24298 91.6919 7.11557C90.9287 6.98206 90.1474 6.95737 89.3759 7.04237C85.4439 7.45595 84.0799 10.2229 84.0999 11.5149Z" fill="#EB0029"/>
<path id="Vector_38" d="M131.716 59.9661C131.716 59.9661 143.86 75.3381 133.86 99" stroke="#263238" stroke-linecap="round" stroke-linejoin="round"/>
<path id="Vector_39" d="M115.688 67.9521C115.688 67.9521 115.688 67.9814 115.688 68.0399C115.688 68.0985 115.688 68.1314 115.688 68.1973V68.2339C115.833 69.7144 116.1 71.1826 116.488 72.6259C117.04 74.7597 117.772 76.791 118.376 78.4234C120.936 85.3591 120.64 92.8328 120.64 92.8328C121.488 91.8666 123.04 91.1785 124.98 90.6954C132.044 88.9203 144.036 89.8719 144.036 89.8719C146.388 82.3213 145.548 70.5031 143.208 63.8858C140.868 57.2686 134.38 58.7618 134.38 58.7618C134.38 58.7618 127.532 58.9448 126.672 58.8607C125.098 58.686 123.505 58.7155 121.94 58.9485C116.652 59.8342 115.38 63.6589 115.688 67.9521Z" fill="#EB0029"/>
<path id="Vector_40" d="M62.9641 96.76C74.9641 106.671 98.1281 107.711 115.364 106.613L125.02 90.7173L128.932 84.2794L116.364 68.7793L115.7 67.9631C115.7 67.9631 115.7 67.9924 115.7 68.051C115.7 68.1095 115.7 68.1425 115.7 68.2083V68.245C115.872 71.0083 116.984 93.1842 108.1 98.6229L108.028 98.6705C106.826 99.3814 105.431 99.7717 104 99.7978C87.7001 100.23 88.1561 80.7658 92.3001 76.5971L64.0161 71.3962C64.0161 71.3962 58.4321 84.2611 62.9641 96.76Z" fill="#EB0029"/>
<path id="Vector_41" d="M94.4241 72.377C94.4241 72.377 97.0761 74.39 95.7081 77.091C94.3401 79.7921 81.1521 74.5473 75.9601 73.5921C70.7681 72.6368 64.7601 71.7035 62.1761 71.2167C59.5921 70.7299 59.8161 63.948 61.9281 63.3477C64.0401 62.7475 84.7281 66.0927 88.1601 67.93C90.4263 69.1893 92.5279 70.6813 94.4241 72.377Z" fill="#263238"/>
<path id="Vector_42" d="M87.7843 17.8028C88.0367 17.5542 88.1895 17.2346 88.2179 16.8963C88.2462 16.5579 88.1484 16.2208 87.9403 15.9399C87.3003 15.0614 86.0083 13.667 84.7683 14.7101C83.0323 16.1741 85.9963 18.8349 87.2243 18.1908C87.43 18.0862 87.6185 17.9556 87.7843 17.8028Z" fill="#FFC3BD"/>
<path id="Vector_43" opacity="0.2" d="M97.4562 12.0054C97.4562 12.0054 99.8242 10.5633 98.7802 9.52387C98.3162 9.06271 96.9282 9.15787 95.0522 9.64831C93.8458 9.94547 92.6641 10.321 91.5162 10.7719C89.8682 11.4271 88.1162 12.2652 86.5602 12.8838C86.5602 12.8838 97.5082 6.18229 100.484 8.30143C102.944 10.0546 97.8282 12.3274 97.6482 12.4812L97.5602 12.1847L97.4562 12.0054Z" fill="black"/>
<path id="Vector_44" d="M96.332 11.3794C96.332 11.3794 98.732 11.7454 97.076 14.1098L96.332 11.3794Z" fill="#263238"/>
<path id="Vector_45" d="M94.032 9.93751C94.032 9.93751 97.652 8.77363 98.66 9.43243C99.668 10.0912 98.612 11.3466 97.46 11.9944L96.536 12.1042L95.992 10.6036L94.584 10.4462L94.032 9.93751Z" fill="#263238"/>
<path id="Vector_46" opacity="0.3" d="M89.1002 8.1476L89.9682 9.32246L93.7402 7.82186C93.1039 7.48881 92.412 7.25387 91.6922 7.12646L89.1002 8.1476Z" fill="white"/>
<path id="Vector_47" opacity="0.1" d="M89.9402 22.1912C90.1898 22.7986 90.5481 23.3638 91.0002 23.8638C91.0782 23.4064 91.1932 22.955 91.3442 22.5132C90.8592 22.4822 90.3839 22.3732 89.9402 22.1912Z" fill="black"/>
<path id="Vector_48" d="M125.8 54.3773C125.96 56.9137 127.16 58.9889 128.632 59.5013C128.886 59.591 129.159 59.6297 129.432 59.6148C131.248 59.5196 132.568 57.0271 132.384 54.0516C132.2 51.076 130.576 48.7409 128.76 48.8361C128.02 48.8727 127.368 49.3082 126.86 50.0073C126.112 51.0101 125.692 52.6132 125.8 54.3773Z" fill="#F5F5F5"/>
<path id="Vector_49" d="M125.8 54.3772C125.96 56.9136 127.16 58.9888 128.632 59.5012C130.312 59.4134 131.532 57.1113 131.36 54.3772C131.188 51.6432 129.692 49.4728 128.012 49.5607C127.579 49.5903 127.17 49.7513 126.848 50.0182C126.112 51.01 125.692 52.6131 125.8 54.3772Z" fill="white"/>
<path id="Vector_50" d="M60.9718 90.3293C64.0638 88.3419 76.0278 86.3911 76.0278 86.3911C83.2958 86.3911 89.6758 92.3752 90.5558 100.321C91.2758 106.785 88.1558 112.652 83.1278 115.327C83.1278 115.327 82.7078 115.488 82.0038 115.741C79.3398 116.703 72.5798 119.035 68.5838 119.547" fill="#263238"/>
<path id="Vector_51" opacity="0.3" d="M52.8489 105.683C51.9166 97.2994 57.4483 89.9176 65.2043 89.1955C72.9603 88.4734 80.0036 94.6844 80.9359 103.068C81.8682 111.452 76.3365 118.834 68.5805 119.556C60.8245 120.278 53.7812 114.067 52.8489 105.683Z" fill="black"/>
<path id="Vector_52" d="M115.033 105.195C114.1 96.8113 119.632 89.4295 127.388 88.7074C135.144 87.9853 142.187 94.1963 143.12 102.58C144.052 110.964 138.52 118.346 130.764 119.068C123.008 119.79 115.965 113.579 115.033 105.195Z" fill="#263238"/>
<path id="Vector_53" d="M120.448 91.5042L127.6 118.98C128.643 119.134 129.705 119.163 130.756 119.064H130.836C132.208 118.742 131.596 119.09 132.972 118.672C136.472 117.615 141.556 115.744 141.556 115.744C146.944 113.347 149.988 107.517 149.248 100.855C148.352 92.7852 142.024 86.7571 134.576 87.2512C134.576 87.2512 131.04 87.8478 127.4 88.7152C125.8 89.0812 124.2 89.5168 122.884 89.9706C122.013 90.3981 121.196 90.9124 120.448 91.5042Z" fill="#263238"/>
<path id="Vector_54" opacity="0.3" d="M115.032 105.178C115.832 112.406 121.18 118.017 127.608 118.965C128.652 119.12 129.713 119.148 130.764 119.049H130.844C132.309 118.905 133.732 118.516 135.044 117.904C140.448 115.397 143.868 109.306 143.12 102.572C142.188 94.1943 135.16 87.9906 127.408 88.7006H127.388C125.814 88.846 124.287 89.2725 122.892 89.956C122.021 90.3846 121.204 90.9001 120.456 91.4932C116.628 94.5383 114.4 99.6477 115.032 105.178Z" fill="black"/>
<path id="Vector_55" d="M116.98 95.552C117.214 95.2098 117.482 94.8876 117.78 94.5895C119.568 92.3569 123.656 91.5224 126.332 91.72C128.383 91.9032 130.353 92.5496 132.064 93.6013C134.016 94.7578 135.412 96.5293 137.348 97.7444C141.02 100.065 146.592 99.999 150.28 97.609C150.488 97.4737 150.686 97.3257 150.872 97.1661C151.248 96.8081 151.499 96.3558 151.592 95.8668C151.733 95.2563 151.682 94.6217 151.444 94.0368C150.644 91.9799 147.976 90.1718 146.292 89.0702C142.878 86.8662 138.862 85.5725 134.692 85.3333C122.8 84.583 117.728 93.8758 116.98 95.552Z" fill="#EB0029"/>
<path id="Vector_56" opacity="0.3" d="M117.804 95.845C120.36 92.4705 123.64 91.5226 126.316 91.7202C128.368 91.9034 130.337 92.5498 132.048 93.6014C134 94.758 135.396 96.5294 137.332 97.7446C141.004 100.065 146.576 99.9991 150.264 97.6091C150.472 97.4739 150.67 97.3259 150.856 97.1663C151.232 96.8083 151.483 96.356 151.576 95.867C151.718 95.2565 151.666 94.6218 151.428 94.037C150.192 95.3436 146.592 98.4912 141.716 96.965C135.636 95.0435 134.152 89.3339 127.652 89.3851C122.488 89.44 119.308 93.1 117.804 95.845Z" fill="black"/>
<g id="Group" opacity="0.3">
<path id="Vector_57" opacity="0.3" d="M144.552 88.0638C142.817 86.9359 140.866 86.1176 138.8 85.6518C136.732 85.1702 134.59 85.0094 132.464 85.176C130.341 85.363 128.262 85.8468 126.3 86.6107L125.572 86.9035L124.86 87.2293C124.38 87.4342 123.928 87.6904 123.464 87.9247C123 88.1589 122.572 88.4481 122.128 88.7079C121.684 88.9678 121.268 89.2716 120.844 89.5607C122.588 88.4913 124.45 87.5921 126.4 86.8779C128.345 86.1637 130.395 85.7161 132.484 85.5493C134.568 85.367 136.67 85.4906 138.712 85.9153C139.737 86.1232 140.741 86.4072 141.716 86.7645C142.705 87.1128 143.654 87.5479 144.552 88.0638Z" fill="black"/>
</g>
<g id="Group_2" opacity="0.3">
<path id="Vector_58" opacity="0.3" d="M131.6 85.4469C132.099 83.9205 132.398 82.3455 132.492 80.7547C132.624 79.17 132.652 77.5779 132.616 75.9967C132.58 74.4156 132.46 72.8199 132.3 71.2387L132.008 68.8744C131.88 68.0875 131.768 67.3006 131.608 66.5173L131.972 71.2753L132.116 73.647C132.14 74.4376 132.192 75.2281 132.196 76.0187C132.264 77.5998 132.232 79.1809 132.168 80.7767C132.14 81.5673 132.072 82.3542 131.984 83.1411C131.914 83.9168 131.785 84.6872 131.6 85.4469Z" fill="black"/>
</g>
<path id="Vector_59" opacity="0.3" d="M108.12 98.59C116.472 93.6746 116.804 80.9927 116.52 72.6259C116.468 71.1875 116.404 69.8809 116.356 68.7573C116.268 67.6326 116.268 66.5037 116.356 65.3791C117.2 59.6329 122 58.9412 122 58.9412H121.98C116.664 59.8342 115.392 63.6589 115.7 67.9521C115.7 67.9521 115.7 67.9814 115.7 68.0399C115.7 68.0985 115.7 68.1314 115.7 68.1973V68.2339C115.88 70.9972 116.992 93.1732 108.12 98.59Z" fill="black"/>
<path id="Vector_60" opacity="0.2" d="M108.8 55.2777C109.5 55.9475 118.552 54.2309 120.132 54.9995C120.8 55.3216 121.092 56.4635 121.764 57.7152C123.652 60.4602 126.308 60.8921 126.472 60.9141C123.304 58.7181 122.42 53.433 123.992 50.0915C125.564 46.7499 131.192 47.6173 131.512 47.7161C130.552 47.3301 129.52 47.1175 128.472 47.0903C125.428 46.9439 121.716 47.7271 120.676 49.4912C118.564 53.089 109.508 52.2801 108.676 53.2244C107.844 54.1687 108.1 54.6079 108.8 55.2777Z" fill="black"/>
<path id="Vector_61" d="M115.888 52.0823C116.438 53.0116 116.658 54.0748 116.516 55.1237L108.848 55.9143C108.456 55.4992 108.166 55.0117 107.999 54.485C107.831 53.9583 107.789 53.4047 107.876 52.8619C107.876 52.8619 115.472 52.1628 115.888 52.0823Z" fill="#263238"/>
<path id="Vector_62" d="M139.172 51.8225C139.172 51.8225 139.936 50.3365 139.02 49.3959C141.068 49.2276 142.336 49.0299 143.656 48.8542C143.852 49.3996 143.948 49.923 143.256 50.7538C142.564 51.5846 139.172 51.8225 139.172 51.8225Z" fill="#263238"/>
<path id="Vector_63" d="M143.432 61.1226C144.76 63.1026 145.896 66.2722 145.996 71.3339" stroke="#EB0029" stroke-linecap="round" stroke-linejoin="round"/>
<path id="Vector_64" d="M139.06 57.8579C140.026 58.063 140.915 58.5016 141.632 59.1279" stroke="#EB0029" stroke-linecap="round" stroke-linejoin="round"/>
<path id="Vector_65" d="M79.4079 38.7783L84.4559 39.342C84.4559 39.342 85.3359 47.8295 86.1519 49.4802C86.1519 49.4802 101.676 51.4346 108.04 51.2626L111.268 53.2682L111.38 56.7599L108.216 56.8441L107.196 54.6481C107.196 54.6481 105.06 54.5639 104.568 53.4622C104.568 53.4622 88.0719 57.1222 81.9959 52.9498C81.9999 52.9352 78.3319 48.0125 79.4079 38.7783Z" fill="#FFC3BD"/>
<path id="Vector_66" opacity="0.2" d="M120.512 104.08C120.656 108.684 123.952 112.33 127.876 112.227C128.403 112.213 128.926 112.13 129.428 111.982C132.572 111.067 134.836 107.674 134.712 103.703C134.588 99.86 132.272 96.6831 129.228 95.801C128.62 95.622 127.983 95.5391 127.344 95.5558C123.42 95.662 120.364 99.4903 120.512 104.08Z" fill="#FAFAFA"/>
<path id="Vector_67" d="M124.124 104.08C124.248 108.011 126.524 111.243 129.428 111.993C132.572 111.078 134.836 107.685 134.712 103.714C134.588 99.871 132.272 96.6941 129.228 95.812C126.204 96.5623 124 100.01 124.124 104.08Z" fill="#263238"/>
<path id="Vector_68" opacity="0.2" d="M58.8798 104.446C59.0278 109.05 62.3238 112.699 66.2438 112.593C66.7714 112.581 67.2942 112.498 67.7958 112.348C70.9438 111.433 73.2078 108.044 73.0798 104.069C72.9598 100.23 70.6438 97.0491 67.5998 96.167C66.9916 95.988 66.3545 95.9051 65.7158 95.9218C61.7918 96.0279 58.7358 99.849 58.8798 104.446Z" fill="#FAFAFA"/>
<path id="Vector_69" d="M62.4918 104.446C62.6198 108.373 64.8918 111.605 67.7958 112.355C70.9438 111.44 73.2078 108.051 73.0798 104.076C72.9598 100.237 70.6438 97.0564 67.5998 96.1743C64.5718 96.9246 62.3638 100.372 62.4918 104.446Z" fill="#263238"/>
<path id="Vector_70" d="M52.6958 92.3167C52.6278 96.8442 60.1599 99.8417 72.7639 101.73C76.1613 102.277 79.6334 102.314 83.0439 101.84C88.6439 100.995 91.3799 98.8279 91.3799 98.8279C91.3799 98.8279 89.9559 83.1814 75.8639 81.1977C66.2639 79.8508 59.0399 83.3937 55.3759 87.211C53.6519 89.0044 52.7158 90.8674 52.6958 92.3167Z" fill="#EB0029"/>
<path id="Vector_71" opacity="0.3" d="M52.696 92.3167C52.628 96.8442 60.16 99.8417 72.764 101.73C76.1614 102.277 79.6335 102.314 83.0439 101.84C82.4399 97.5908 79.728 86.4461 67.94 85.2895C62.592 84.7625 58.464 85.7507 55.376 87.211C53.652 89.0044 52.716 90.8674 52.696 92.3167Z" fill="black"/>
<g id="Group_3" opacity="0.3">
<path id="Vector_72" opacity="0.3" d="M90.564 98.8973C90.3046 96.7675 89.7495 94.6766 88.912 92.6753C88.0884 90.6533 86.9514 88.7502 85.536 87.0243C84.8207 86.1664 84.017 85.3734 83.136 84.6563C82.2629 83.9275 81.3005 83.2938 80.268 82.7677C78.2135 81.7076 75.9368 81.0577 73.588 80.8608C74.7389 81.0373 75.8711 81.3042 76.972 81.6587C77.528 81.8124 78.052 82.0503 78.572 82.2516C79.0937 82.4803 79.6024 82.7331 80.096 83.0093C80.6 83.2728 81.064 83.5912 81.54 83.8877C82.016 84.1841 82.456 84.5355 82.876 84.9051C83.7301 85.6153 84.5083 86.3985 85.2 87.2439C86.6051 88.9365 87.7504 90.7972 88.604 92.7741C89.0471 93.7589 89.4291 94.7657 89.748 95.79C90.0874 96.8099 90.3599 97.8476 90.564 98.8973Z" fill="black"/>
</g>
<path id="Vector_73" d="M109.476 93.7295L108.644 96.3135L99.9201 95.6473L99.8041 92.0349L109.476 93.7295Z" fill="#EB0029"/>
</g>
<g id="freepik--speed-line--inject-8">
<path id="Vector_74" d="M57.5361 76.1068L38.3401 75.3931" stroke="#EB0029" stroke-linecap="round" stroke-linejoin="round"/>
<path id="Vector_75" d="M31.9961 72.1943L29.1441 72.0881" stroke="#EB0029" stroke-linecap="round" stroke-linejoin="round"/>
<path id="Vector_76" d="M48.3359 72.8017L34.1839 72.2747" stroke="#EB0029" stroke-linecap="round" stroke-linejoin="round"/>
<path id="Vector_77" d="M38.4321 81.8933L26.5722 81.4541" stroke="#EB0029" stroke-linecap="round" stroke-linejoin="round"/>
<path id="Vector_78" d="M45.7642 82.1679L40.5961 81.9739" stroke="#EB0029" stroke-linecap="round" stroke-linejoin="round"/>
</g>
</g>
</svg>
