<svg width="14" height="14" viewBox="0 0 14 14" fill="none" xmlns="http://www.w3.org/2000/svg">
<g id="grommet-icons:location">
<path id="Vector" d="M7.00016 12.8334C7.00016 12.8334 2.3335 9.33342 2.3335 5.83342C2.3335 2.91675 4.66683 1.16675 7.00016 1.16675C9.3335 1.16675 11.6668 2.91675 11.6668 5.83342C11.6668 9.33342 7.00016 12.8334 7.00016 12.8334ZM7.00016 7.58342C7.46429 7.58342 7.90941 7.39904 8.2376 7.07085C8.56579 6.74266 8.75016 6.29754 8.75016 5.83342C8.75016 5.36929 8.56579 4.92417 8.2376 4.59598C7.90941 4.26779 7.46429 4.08341 7.00016 4.08341C6.53603 4.08341 6.09091 4.26779 5.76273 4.59598C5.43454 4.92417 5.25016 5.36929 5.25016 5.83342C5.25016 6.29754 5.43454 6.74266 5.76273 7.07085C6.09091 7.39904 6.53603 7.58342 7.00016 7.58342V7.58342Z" stroke="#EB0029"/>
</g>
</svg>
