<svg width="38" height="39" viewBox="0 0 38 39" fill="none" xmlns="http://www.w3.org/2000/svg">
<g id="Frame 9">
<rect y="0.5" width="38" height="38" rx="19" fill="#EB0029"/>
<g id="Group">
<path id="Vector" d="M15.1794 11.9897L16.0959 11.714C16.5979 11.5626 17.1379 11.5991 17.6151 11.8166C18.0922 12.034 18.4739 12.4177 18.689 12.8959L19.3974 14.4713C19.5823 14.8826 19.6338 15.3416 19.5446 15.7837C19.4555 16.2258 19.2301 16.6289 18.9002 16.9364L17.727 18.0303C17.6927 18.0623 17.671 18.1055 17.6657 18.1521C17.6312 18.4638 17.8424 19.0709 18.3293 19.9151C18.6835 20.5284 19.0047 20.9596 19.2772 21.2007C19.4672 21.3695 19.5717 21.4056 19.6165 21.3931L21.1949 20.9101C21.626 20.7782 22.0875 20.7846 22.5148 20.9282C22.9421 21.0719 23.3137 21.3456 23.5776 21.7111L24.5836 23.1058C24.8895 23.53 25.0311 24.0507 24.9822 24.5714C24.9332 25.092 24.697 25.5772 24.3174 25.9369L23.6216 26.5966C23.2523 26.9463 22.7987 27.1944 22.3051 27.3167C21.8114 27.4391 21.2945 27.4315 20.8046 27.2947C18.6419 26.6908 16.7029 24.8657 14.9658 21.8572C13.2263 18.8447 12.6161 16.25 13.1784 14.0723C13.305 13.5826 13.5556 13.1337 13.9061 12.7689C14.2566 12.4041 14.6951 12.1357 15.1794 11.9897ZM15.5195 13.1182C15.2289 13.2057 14.9659 13.3666 14.7556 13.5853C14.5453 13.804 14.3948 14.0731 14.3187 14.3668C13.8459 16.1982 14.387 18.4984 15.9859 21.2682C17.5825 24.0341 19.3015 25.6518 21.1219 26.1607C21.4157 26.2426 21.7257 26.2469 22.0217 26.1735C22.3177 26.1 22.5897 25.9511 22.8111 25.7414L23.5077 25.0817C23.6803 24.9182 23.7877 24.6976 23.81 24.4608C23.8322 24.2241 23.7678 23.9874 23.6286 23.7946L22.6234 22.4006C22.5035 22.2343 22.3345 22.1097 22.1401 22.0444C21.9457 21.979 21.7358 21.9762 21.5397 22.0362L19.9573 22.5208C19.0385 22.7941 18.2045 22.0551 17.3092 20.5041C16.7061 19.4596 16.4249 18.6507 16.4948 18.0217C16.5317 17.695 16.6833 17.3934 16.9236 17.1688L18.0969 16.0749C18.2469 15.9351 18.3494 15.7519 18.3899 15.5509C18.4305 15.3499 18.4071 15.1413 18.323 14.9542L17.6147 13.3789C17.5169 13.1617 17.3435 12.9874 17.1268 12.8886C16.9101 12.7898 16.6648 12.7731 16.4367 12.8417L15.5195 13.1182Z" fill="#F2F2F2"/>
</g>
</g>
</svg>
